<?xml version="1.0" standalone="no"?>
<!DOCTYPE svg PUBLIC "-//W3C//DTD SVG 20010904//EN"
 "http://www.w3.org/TR/2001/REC-SVG-20010904/DTD/svg10.dtd">
<svg version="1.0" xmlns="http://www.w3.org/2000/svg"
 width="310.000000pt" height="310.000000pt" viewBox="0 0 310.000000 310.000000"
 preserveAspectRatio="xMidYMid meet">
<metadata>
Created by potrace 1.11, written by Peter Selinger 2001-2013
</metadata>
<g transform="translate(0.000000,310.000000) scale(0.100000,-0.100000)"
fill="#000000" stroke="none">
<path d="M0 1550 l0 -1550 1550 0 1550 0 0 1550 0 1550 -1550 0 -1550 0 0
-1550z m1358 98 l2 -678 -390 0 -390 0 0 195 0 196 98 -3 97 -3 3 -97 3 -98
189 0 190 0 0 578 c0 318 3 582 7 586 4 4 48 5 98 4 l90 -3 3 -677z m1160 485
l2 -193 -94 0 -95 0 -3 -97 -3 -98 -97 -3 -98 -3 0 -94 0 -95 -95 0 -95 0 0
-95 0 -95 -100 0 -101 0 3 -97 3 -98 388 -3 387 -2 0 -95 0 -95 -485 0 -485 0
0 195 0 195 95 0 95 0 0 95 0 95 100 0 100 0 0 95 0 95 95 0 95 0 0 100 0 100
95 0 95 0 0 95 0 95 -385 0 -385 0 0 93 c0 52 3 97 7 100 3 4 221 6 482 5
l476 -3 3 -192z"/>
</g>
</svg>
